<svg width="24" height="24" viewBox="0 0 24 24" fill="currentColor" xmlns="http://www.w3.org/2000/svg">
  <path d="M12 2C6.477 2 2 6.477 2 12c0 4.418 2.865 8.166 6.839 9.49.5.092.682-.217.682-.482 0-.237-.009-.866-.013-1.7-2.782.604-3.369-1.34-3.369-1.34-.455-1.157-1.11-1.466-1.11-1.466-.908-.62.069-.607.069-.607 1.004.071 1.532 1.031 1.532 1.031.892 1.528 2.341 1.087 2.91.832.091-.647.35-1.087.636-1.337-2.22-.252-4.555-1.11-4.555-4.943 0-1.091.39-1.984 1.03-2.682-.103-.253-.447-1.27.098-2.646 0 0 .84-.269 2.75 1.025A9.564 9.564 0 0 1 12 6.844a9.56 9.56 0 0 1 2.503.337c1.909-1.294 2.748-1.025 2.748-1.025.546 1.376.202 2.393.1 2.646.64.698 1.028 1.591 1.028 2.682 0 3.842-2.338 4.688-4.566 4.936.359.309.678.919.678 1.852 0 1.336-.012 2.414-.012 2.743 0 .267.18.577.688.479A10.004 10.004 0 0 0 22 12c0-5.523-4.477-10-10-10Z"/>
</svg>
